<?xml version="1.0" encoding="UTF-8"?>
<svg id="Layer_1" data-name="Layer 1" xmlns="http://www.w3.org/2000/svg" version="1.1" viewBox="0 0 779.87 245.49">
  <defs>
    <style>
      .cls-1 {
        fill: #2c9563;
      }

      .cls-1, .cls-2 {
        stroke-width: 0px;
      }

      .cls-2 {
        fill: #172628;
      }
    </style>
  </defs>
  <g>
    <path class="cls-1" d="M345.57,1.44c9.11,32.4,25.09,60.81,48.51,85.46,11.52-16.59,19.95-34.22,26.2-52.96,1.47,43.37-9.93,82.99-34.52,119.32-34.63-45.33-47.77-95.82-40.19-151.82Z"/>
    <path class="cls-2" d="M446.14,74.51c-4.86,10.27-8.6,20.91-11.07,31.99-.43,1.93-.73,3.89-1.19,6.38,23.67-.75,45.31-7.23,65.66-19.03-11.84,24.58-69.57,58.79-93.36,55.5,1.09-21.48,20.91-58.85,39.96-74.84Z"/>
    <path class="cls-2" d="M306.67,59.08c31.26,23.35,49.78,54.29,55.54,93.46-29.65-5.42-54.58-18.59-75.18-39.99,12.13,5.45,24.54,9.86,38.16,11.91-.86-23.61-7.17-45.15-18.52-65.37Z"/>
    <path class="cls-2" d="M478.69,81.33c-.06,7.65-6.02,14.73-13.49,16-5.57.95-10.32-2.67-10.9-8.32-.76-7.37,4.37-15.16,11.41-17.34,7.28-2.26,13.04,2.03,12.98,9.66Z"/>
    <path class="cls-2" d="M283.48,89.03c-.02-5.5,3.59-9.06,9.41-9.3,7.19-.29,14.32,4.94,16.3,11.95,1.73,6.13-1.43,11.2-7.69,12.32-8.35,1.5-17.99-6.51-18.01-14.98Z"/>
    <path class="cls-1" d="M385.03,6.49c7.12-3.45,13.99-.99,17.92,6.41,4.86,9.14,2.52,21.65-5.34,28.58-6.88,6.06-15.41,5.12-20.78-2.3-7.16-9.9-2.77-27.38,8.19-32.69Z"/>
  </g>
</svg>