<svg width="30" height="30" viewBox="0 0 30 30" fill="none" xmlns="http://www.w3.org/2000/svg">
<g clip-path="url(#clip0_14_185)">
<path d="M30 8.75V6.25H27.5C27.5 4.1825 25.8175 2.5 23.75 2.5V0H21.25V2.5H18.75V0H16.25V2.5H13.75V0H11.25V2.5H8.75V0H6.25V2.5C4.1825 2.5 2.5 4.1825 2.5 6.25H0V8.75H2.5V11.25H0V13.75H2.5V16.25H0V18.75H2.5V21.25H0V23.75H2.5V27.5H6.25V30H8.75V27.5H11.25V30H13.75V27.5H16.25V30H18.75V27.5H21.25V30H23.75V27.5H27.5V23.75H30V21.25H27.5V18.75H30V16.25H27.5V13.75H30V11.25H27.5V8.75H30ZM25 25H5V6.25C5 5.56 5.56125 5 6.25 5H23.75C24.4387 5 25 5.56 25 6.25V25ZM13.595 8.975C11.9538 8.2875 10.2812 9.25125 9.92375 10.7975L7.5 21.25H10.0663L10.3562 20H14.6438L14.9337 21.25H17.5L15.0975 10.8862C14.905 10.0587 14.3788 9.30375 13.595 8.97625V8.975ZM10.9362 17.5L12.3588 11.3625C12.3737 11.2963 12.4325 11.25 12.5 11.25C12.5675 11.25 12.6263 11.2963 12.6412 11.3625L14.0638 17.5H10.9362ZM18.75 8.75H21.25V21.25H18.75V8.75Z" fill="#182628"/>
</g>
<defs>
<clipPath id="clip0_14_185">
<rect width="30" height="30" fill="white"/>
</clipPath>
</defs>
</svg>
