<svg width="321" height="101" viewBox="0 0 321 101" fill="none" xmlns="http://www.w3.org/2000/svg">
<path d="M141.982 -9.53674e-07C145.764 13.4189 152.397 25.1853 162.119 35.3945C166.901 28.5235 170.4 21.2218 172.995 13.4603C173.605 31.4226 168.873 47.8318 158.665 62.8784C144.29 44.1043 138.836 23.1932 141.982 -9.53674e-07Z" fill="white"/>
<path d="M183.729 30.263C181.712 34.5164 180.159 38.9231 179.134 43.5121C178.956 44.3114 178.831 45.1232 178.64 46.1544C188.466 45.8438 197.448 43.16 205.896 38.2729C200.981 48.453 177.017 62.6216 167.142 61.259C167.594 52.3628 175.822 36.8854 183.729 30.263Z" fill="white"/>
<path d="M125.835 23.8724C138.811 33.5431 146.499 46.3574 148.89 62.5802C136.582 60.3354 126.233 54.8809 117.682 46.0178C122.717 48.275 127.869 50.1014 133.523 50.9505C133.166 41.172 130.546 32.251 125.835 23.8766V23.8724Z" fill="white"/>
<path d="M197.241 33.0876C197.216 36.2559 194.742 39.1882 191.641 39.7142C189.329 40.1076 187.357 38.6084 187.116 36.2683C186.801 33.216 188.93 29.9896 191.853 29.0867C194.875 28.1507 197.266 29.9275 197.241 33.0876Z" fill="white"/>
<path d="M116.208 36.2766C116.2 33.9987 117.699 32.5243 120.115 32.4249C123.099 32.3048 126.059 34.4709 126.881 37.3742C127.599 39.913 126.287 42.0128 123.689 42.4767C120.222 43.0979 116.221 39.7804 116.213 36.2725L116.208 36.2766Z" fill="white"/>
<path d="M158.362 2.09153C161.318 0.662661 164.17 1.6815 165.801 4.74632C167.818 8.53178 166.847 13.713 163.584 16.5831C160.728 19.093 157.187 18.7036 154.958 15.6305C151.986 11.5303 153.809 4.29074 158.358 2.09153H158.362Z" fill="white"/>
<path d="M9.37305 90.4203L0 75.5725H5.40881L12.6773 87.4673H9.57645L16.8449 75.5725H22.1832L12.7105 90.4244H9.3689L9.37305 90.4203ZM8.75039 99.739V87.9146H13.4701V99.739H8.75039Z" fill="white"/>
<path d="M27.6335 100.083C25.9565 100.083 24.4455 99.6976 23.1047 98.9314C21.7598 98.1651 20.6929 97.1215 19.9001 95.8044C19.1072 94.4874 18.7129 93.0129 18.7129 91.3853C18.7129 89.7576 19.1031 88.2956 19.8835 87.0034C20.6639 85.7071 21.7307 84.6758 23.0881 83.9096C24.4413 83.1434 25.9482 82.7582 27.6003 82.7582C29.2524 82.7582 30.8215 83.1434 32.1664 83.9096C33.5113 84.6758 34.574 85.7071 35.3544 87.0034C36.1348 88.2998 36.525 89.7576 36.525 91.3853C36.525 93.0129 36.1348 94.4832 35.3544 95.8044C34.574 97.1215 33.5113 98.1651 32.1664 98.9314C30.8215 99.6976 29.3105 100.083 27.6376 100.083H27.6335ZM27.5961 95.8873C28.4471 95.8873 29.1984 95.6967 29.8543 95.3198C30.5101 94.943 31.0124 94.4128 31.3694 93.7377C31.7264 93.0627 31.9049 92.2882 31.9049 91.4184C31.9049 90.5487 31.7223 89.7783 31.3528 89.1157C30.9834 88.453 30.4811 87.9312 29.8377 87.5501C29.1943 87.1732 28.4471 86.9827 27.5961 86.9827C26.7452 86.9827 26.0353 87.1732 25.3919 87.5501C24.7485 87.927 24.2421 88.4489 23.8768 89.1157C23.5073 89.7825 23.3247 90.5487 23.3247 91.4184C23.3247 92.2882 23.5073 93.0627 23.8768 93.7377C24.2421 94.4128 24.7485 94.943 25.3919 95.3198C26.0353 95.6967 26.7701 95.8873 27.5961 95.8873Z" fill="white"/>
<path d="M46.5124 100.083C45.0429 100.083 43.7395 99.7721 42.6021 99.155C41.4647 98.5379 40.5764 97.6764 39.933 96.5789C39.2896 95.4772 38.97 94.2057 38.97 92.7644V83.1393H43.5195V92.6609C43.5195 93.3484 43.6357 93.9365 43.864 94.4294C44.0924 94.9222 44.4369 95.295 44.8977 95.5476C45.3584 95.8003 45.8981 95.9245 46.5166 95.9245C47.4588 95.9245 48.1936 95.6387 48.7208 95.0631C49.2479 94.4915 49.5136 93.688 49.5136 92.6568V83.1351H54.0258V92.7603C54.0258 94.2264 53.7103 95.5104 53.0794 96.612C52.4484 97.7137 51.5642 98.5669 50.4268 99.1716C49.2895 99.7762 47.986 100.083 46.5166 100.083H46.5124Z" fill="white"/>
<path d="M57.604 99.739V83.1351H62.1162V99.739H57.604ZM62.1203 90.5611L60.3644 89.3932C60.572 87.3555 61.1697 85.7444 62.1577 84.564C63.1456 83.3836 64.5694 82.7955 66.4291 82.7955C67.2344 82.7955 67.9567 82.9281 68.6001 83.1931C69.2435 83.4582 69.8288 83.8848 70.356 84.4812L67.5291 87.7116C67.2759 87.4383 66.9729 87.2312 66.6159 87.0945C66.2589 86.9579 65.8521 86.8875 65.3914 86.8875C64.4283 86.8875 63.6396 87.1898 63.0294 87.7986C62.4192 88.4074 62.1162 89.3269 62.1162 90.5652L62.1203 90.5611Z" fill="white"/>
<path d="M71.593 99.739V74.885H76.1052V87.2271L75.3456 91.2155L76.0678 95.2701V99.739H71.5889H71.593ZM80.8291 100.083C79.6336 100.083 78.5543 99.8301 77.5913 99.3248C76.6282 98.8195 75.8561 98.132 75.2833 97.2623C74.7104 96.3925 74.3991 95.4192 74.3535 94.3383V88.424C74.3991 87.3472 74.7146 86.378 75.2999 85.5207C75.8852 84.6593 76.6614 83.9925 77.6245 83.5079C78.5875 83.0275 79.6585 82.7872 80.8291 82.7872C82.3691 82.7872 83.7473 83.1641 84.9635 83.922C86.1798 84.68 87.1387 85.7112 87.8402 87.0158C88.5417 88.3205 88.8904 89.799 88.8904 91.4515C88.8904 93.1041 88.5417 94.5454 87.8402 95.85C87.1387 97.1546 86.1798 98.1859 84.9635 98.9438C83.7473 99.7017 82.3691 100.079 80.8291 100.079V100.083ZM80.0694 95.9204C80.8955 95.9204 81.6261 95.7299 82.257 95.353C82.888 94.9761 83.382 94.446 83.739 93.7709C84.0959 93.0958 84.2744 92.3089 84.2744 91.4143C84.2744 90.5197 84.0959 89.77 83.739 89.095C83.382 88.4199 82.8838 87.8939 82.2404 87.5128C81.597 87.136 80.8623 86.9454 80.0362 86.9454C79.2102 86.9454 78.4796 87.136 77.8486 87.5128C77.2177 87.8897 76.7237 88.4199 76.3667 89.095C76.0097 89.77 75.8312 90.5445 75.8312 91.4143C75.8312 92.284 76.0097 93.0916 76.3667 93.7709C76.7237 94.446 77.2218 94.9761 77.8652 95.353C78.5086 95.7299 79.2434 95.9204 80.0694 95.9204Z" fill="white"/>
<path d="M99.8117 100.083C98.0641 100.083 96.5158 99.71 95.1626 98.9645C93.8052 98.219 92.7342 97.196 91.9413 95.8872C91.1485 94.5785 90.7542 93.0916 90.7542 91.4184C90.7542 89.7452 91.1402 88.2956 91.9081 86.9993C92.6761 85.703 93.7263 84.6717 95.0588 83.9055C96.3913 83.1393 97.8732 82.7541 99.5045 82.7541C101.136 82.7541 102.531 83.1144 103.759 83.8351C104.988 84.5557 105.951 85.5414 106.653 86.7922C107.354 88.043 107.703 89.4553 107.703 91.0374C107.703 91.3356 107.686 91.6379 107.653 91.9485C107.62 92.2592 107.553 92.6071 107.462 92.9964L93.4731 93.0295V89.6624L105.362 89.6292L103.535 91.0374C103.49 90.0517 103.311 89.2275 103 88.5607C102.688 87.898 102.24 87.3886 101.655 87.0324C101.069 86.6762 100.351 86.4981 99.5004 86.4981C98.6038 86.4981 97.8234 86.7011 97.1592 87.0987C96.4909 87.5004 95.9803 88.0595 95.6275 88.7843C95.2705 89.505 95.092 90.3582 95.092 91.3439C95.092 92.3296 95.2829 93.2283 95.6607 93.9738C96.0384 94.7193 96.5864 95.2909 97.2962 95.6926C98.006 96.0943 98.8362 96.2931 99.7785 96.2931C100.629 96.2931 101.397 96.1523 102.086 95.8624C102.776 95.5766 103.373 95.1459 103.88 94.5743L106.532 97.2208C105.727 98.161 104.747 98.8692 103.585 99.3538C102.427 99.8342 101.169 100.074 99.8117 100.074V100.083Z" fill="white"/>
<path d="M116.208 100.116C115.266 100.116 114.34 99.9916 113.436 99.739C112.526 99.4863 111.696 99.1384 110.937 98.6911C110.177 98.2438 109.525 97.7013 108.973 97.0593L111.659 94.3424C112.232 94.9844 112.9 95.4648 113.656 95.7878C114.415 96.1109 115.254 96.2683 116.171 96.2683C116.906 96.2683 117.462 96.1647 117.844 95.9577C118.222 95.7506 118.413 95.4399 118.413 95.0299C118.413 94.5702 118.213 94.2182 117.811 93.9655C117.408 93.7129 116.885 93.5017 116.242 93.3277C115.598 93.1538 114.926 92.9632 114.224 92.7437C113.523 92.5242 112.85 92.2385 112.207 91.8823C111.563 91.5261 111.04 91.0332 110.638 90.4037C110.235 89.7742 110.036 88.9541 110.036 87.9477C110.036 86.9413 110.293 85.9763 110.812 85.1977C111.331 84.419 112.07 83.8102 113.033 83.3754C113.996 82.9405 115.133 82.721 116.445 82.721C117.823 82.721 119.068 82.9612 120.185 83.4416C121.298 83.922 122.223 84.6468 122.958 85.6077L120.235 88.3246C119.728 87.7075 119.16 87.2602 118.529 86.9827C117.898 86.7094 117.213 86.5686 116.478 86.5686C115.81 86.5686 115.299 86.6721 114.946 86.8792C114.59 87.0863 114.411 87.372 114.411 87.7406C114.411 88.1548 114.61 88.4737 115.013 88.7015C115.416 88.9293 115.939 89.1322 116.582 89.302C117.225 89.476 117.898 89.6706 118.599 89.886C119.301 90.1055 119.965 90.4079 120.596 90.7972C121.227 91.1865 121.746 91.7042 122.149 92.3461C122.551 92.9881 122.75 93.8123 122.75 94.8228C122.75 96.4505 122.165 97.7386 120.995 98.6911C119.824 99.6437 118.226 100.116 116.204 100.116H116.208Z" fill="white"/>
<path d="M124.34 87.0863V83.1351H136.64V87.0863H124.34ZM128.234 99.739V76.2269H132.746V99.739H128.234Z" fill="white"/>
<path d="M146.631 100.083C144.929 100.083 143.406 99.7058 142.049 98.9479C140.691 98.19 139.624 97.1587 138.844 95.8541C138.064 94.5495 137.673 93.0834 137.673 91.4557C137.673 89.828 138.064 88.3288 138.844 87.02C139.624 85.7154 140.7 84.6758 142.065 83.9096C143.431 83.1434 144.954 82.7582 146.631 82.7582C147.939 82.7582 149.147 82.9985 150.251 83.4789C151.355 83.9593 152.306 84.6468 153.111 85.5414L150.218 88.4613C149.782 87.9809 149.259 87.6122 148.649 87.3596C148.039 87.107 147.37 86.9827 146.631 86.9827C145.805 86.9827 145.062 87.1732 144.411 87.5501C143.755 87.927 143.24 88.4447 142.862 89.095C142.485 89.7452 142.294 90.5197 142.294 91.4143C142.294 92.3089 142.485 93.0585 142.862 93.7336C143.24 94.4087 143.759 94.9388 144.411 95.3157C145.066 95.6926 145.805 95.8831 146.631 95.8831C147.391 95.8831 148.072 95.7506 148.682 95.4855C149.292 95.2246 149.815 94.8394 150.251 94.3341L153.178 97.2581C152.327 98.1734 151.351 98.8734 150.251 99.3538C149.147 99.8342 147.943 100.074 146.631 100.074V100.083Z" fill="white"/>
<path d="M162.31 100.083C160.795 100.083 159.429 99.7058 158.209 98.9479C156.992 98.19 156.038 97.1587 155.349 95.8541C154.659 94.5495 154.315 93.0833 154.315 91.4557C154.315 89.828 154.659 88.3287 155.349 87.02C156.038 85.7154 156.992 84.6841 158.209 83.9262C159.425 83.1683 160.795 82.7914 162.31 82.7914C163.505 82.7914 164.572 83.0316 165.514 83.512C166.457 83.9925 167.208 84.6634 167.773 85.5249C168.337 86.3863 168.64 87.3513 168.686 88.4281V94.4087C168.64 95.5104 168.337 96.4836 167.773 97.3327C167.208 98.1817 166.457 98.8527 165.514 99.3455C164.572 99.8384 163.505 100.083 162.31 100.083ZM163.136 95.9204C164.398 95.9204 165.423 95.5021 166.204 94.6655C166.984 93.8288 167.374 92.7479 167.374 91.4184C167.374 90.5487 167.196 89.7742 166.839 89.0991C166.482 88.424 165.988 87.898 165.357 87.517C164.726 87.1401 163.983 86.9496 163.136 86.9496C162.289 86.9496 161.579 87.1401 160.948 87.517C160.317 87.8939 159.823 88.424 159.466 89.0991C159.109 89.7742 158.931 90.5487 158.931 91.4184C158.931 92.2882 159.109 93.0958 159.466 93.775C159.823 94.4501 160.317 94.9802 160.948 95.3571C161.579 95.734 162.31 95.9245 163.136 95.9245V95.9204ZM167.133 99.739V95.2701L167.856 91.2155L167.133 87.2271V83.1351H171.612V99.739H167.133Z" fill="white"/>
<path d="M175.61 99.739V83.1351H180.122V99.739H175.61ZM186.805 99.739V90.2173C186.805 89.2316 186.494 88.4282 185.875 87.811C185.257 87.1939 184.451 86.8833 183.464 86.8833C182.82 86.8833 182.247 87.02 181.741 87.2975C181.234 87.5708 180.84 87.9643 180.554 88.4654C180.267 88.9707 180.122 89.5547 180.122 90.2173L178.366 89.3227C178.366 88.0181 178.648 86.875 179.209 85.9017C179.773 84.9285 180.554 84.1664 181.55 83.6156C182.55 83.0647 183.679 82.7914 184.945 82.7914C186.212 82.7914 187.253 83.0937 188.216 83.7025C189.18 84.3114 189.939 85.1024 190.491 86.0757C191.043 87.049 191.317 88.0968 191.317 89.2192V99.739H186.805Z" fill="white"/>
<path d="M201.998 100.083C200.458 100.083 199.08 99.7058 197.864 98.9479C196.647 98.19 195.688 97.1587 194.987 95.8541C194.285 94.5495 193.937 93.0834 193.937 91.4557C193.937 89.828 194.285 88.3288 194.987 87.02C195.688 85.7154 196.639 84.6841 197.847 83.9262C199.051 83.1683 200.437 82.7914 201.998 82.7914C203.193 82.7914 204.264 83.0316 205.219 83.512C206.17 83.9925 206.942 84.6634 207.527 85.5249C208.112 86.3863 208.428 87.3513 208.474 88.4281V94.3424C208.428 95.4192 208.117 96.3925 207.544 97.2664C206.971 98.1362 206.199 98.8237 205.236 99.329C204.273 99.8342 203.193 100.087 201.998 100.087V100.083ZM202.758 95.9204C203.609 95.9204 204.347 95.7299 204.978 95.353C205.609 94.9761 206.103 94.446 206.46 93.7709C206.817 93.0958 206.996 92.3089 206.996 91.4143C206.996 90.5197 206.817 89.77 206.46 89.095C206.103 88.4199 205.609 87.8939 204.978 87.5129C204.347 87.136 203.617 86.9454 202.791 86.9454C201.965 86.9454 201.201 87.1401 200.57 87.5294C199.939 87.9187 199.445 88.4447 199.088 89.1115C198.731 89.7783 198.553 90.5445 198.553 91.4143C198.553 92.284 198.731 93.0916 199.088 93.7709C199.445 94.446 199.943 94.9761 200.587 95.353C201.23 95.7299 201.952 95.9204 202.758 95.9204ZM211.234 99.739H206.755V95.2701L207.477 91.2155L206.718 87.2271V74.885H211.23V99.739H211.234Z" fill="white"/>
<path d="M217.502 80.4513C216.767 80.4513 216.157 80.207 215.676 79.71C215.194 79.2171 214.953 78.6042 214.953 77.8711C214.953 77.138 215.194 76.5541 215.676 76.0488C216.157 75.5435 216.767 75.2909 217.502 75.2909C218.237 75.2909 218.876 75.5435 219.345 76.0488C219.814 76.5541 220.051 77.1587 220.051 77.8711C220.051 78.5835 219.814 79.2171 219.345 79.71C218.876 80.2028 218.262 80.4513 217.502 80.4513ZM215.232 99.739V83.1351H219.781V99.739H215.232Z" fill="white"/>
<path d="M230.802 100.083C229.262 100.083 227.884 99.7058 226.668 98.9479C225.451 98.19 224.492 97.1587 223.791 95.8541C223.089 94.5495 222.741 93.0834 222.741 91.4557C222.741 89.828 223.089 88.3288 223.791 87.02C224.492 85.7154 225.443 84.6841 226.651 83.9262C227.855 83.1683 229.241 82.7914 230.802 82.7914C231.998 82.7914 233.069 83.0316 234.023 83.512C234.974 83.9925 235.746 84.6634 236.331 85.5249C236.917 86.3863 237.232 87.3513 237.278 88.4281V94.3424C237.232 95.4192 236.921 96.3925 236.348 97.2664C235.775 98.1362 235.003 98.8237 234.04 99.329C233.077 99.8342 231.998 100.087 230.802 100.087V100.083ZM231.562 95.9204C232.413 95.9204 233.152 95.7299 233.782 95.353C234.413 94.9761 234.907 94.446 235.264 93.7709C235.621 93.0958 235.8 92.3089 235.8 91.4143C235.8 90.5197 235.621 89.77 235.264 89.095C234.907 88.4199 234.413 87.8939 233.782 87.5129C233.152 87.136 232.421 86.9454 231.595 86.9454C230.769 86.9454 230.005 87.1401 229.374 87.5294C228.743 87.9187 228.249 88.4447 227.892 89.1115C227.535 89.7783 227.357 90.5445 227.357 91.4143C227.357 92.284 227.535 93.0916 227.892 93.7709C228.249 94.446 228.747 94.9761 229.391 95.353C230.034 95.7299 230.756 95.9204 231.562 95.9204ZM240.034 99.739H235.555V95.2701L236.277 91.2155L235.518 87.2271V74.885H240.03V99.739H240.034Z" fill="white"/>
<path d="M250.993 100.083C249.478 100.083 248.112 99.7058 246.891 98.9479C245.675 98.19 244.72 97.1587 244.031 95.8541C243.342 94.5495 242.998 93.0833 242.998 91.4557C242.998 89.828 243.342 88.3287 244.031 87.02C244.72 85.7154 245.675 84.6841 246.891 83.9262C248.108 83.1683 249.478 82.7914 250.993 82.7914C252.188 82.7914 253.255 83.0316 254.197 83.512C255.14 83.9925 255.891 84.6634 256.455 85.5249C257.02 86.3863 257.323 87.3513 257.369 88.4281V94.4087C257.323 95.5104 257.02 96.4836 256.455 97.3327C255.891 98.1817 255.14 98.8527 254.197 99.3455C253.255 99.8384 252.188 100.083 250.993 100.083ZM251.819 95.9204C253.081 95.9204 254.102 95.5021 254.886 94.6655C255.667 93.8288 256.057 92.7479 256.057 91.4184C256.057 90.5487 255.879 89.7742 255.522 89.0991C255.165 88.424 254.671 87.898 254.04 87.517C253.409 87.1401 252.666 86.9496 251.819 86.9496C250.972 86.9496 250.262 87.1401 249.631 87.517C249 87.8939 248.506 88.424 248.149 89.0991C247.792 89.7742 247.614 90.5487 247.614 91.4184C247.614 92.2882 247.792 93.0958 248.149 93.775C248.506 94.4501 249 94.9802 249.631 95.3571C250.262 95.734 250.993 95.9245 251.819 95.9245V95.9204ZM255.816 99.739V95.2701L256.538 91.2155L255.816 87.2271V83.1351H260.295V99.739H255.816Z" fill="white"/>
<path d="M262.844 87.0863V83.1351H275.143V87.0863H262.844ZM266.738 99.739V76.2269H271.25V99.739H266.738Z" fill="white"/>
<path d="M285.239 100.083C283.491 100.083 281.943 99.71 280.585 98.9645C279.228 98.219 278.157 97.196 277.364 95.8872C276.571 94.5785 276.177 93.0916 276.177 91.4184C276.177 89.7452 276.563 88.2956 277.331 86.9993C278.099 85.703 279.149 84.6717 280.482 83.9055C281.814 83.1393 283.296 82.7541 284.927 82.7541C286.559 82.7541 287.954 83.1144 289.182 83.8351C290.411 84.5557 291.374 85.5414 292.076 86.7922C292.777 88.043 293.126 89.4553 293.126 91.0374C293.126 91.3356 293.109 91.6379 293.076 91.9485C293.043 92.2592 292.976 92.6071 292.885 92.9964L278.896 93.0295V89.6624L290.785 89.6292L288.958 91.0374C288.912 90.0517 288.734 89.2275 288.423 88.5607C288.111 87.898 287.663 87.3886 287.078 87.0324C286.492 86.6762 285.774 86.4981 284.923 86.4981C284.027 86.4981 283.246 86.7011 282.582 87.0987C281.914 87.5004 281.403 88.0595 281.05 88.7843C280.693 89.505 280.515 90.3582 280.515 91.3439C280.515 92.3296 280.706 93.2283 281.084 93.9738C281.461 94.7193 282.009 95.2909 282.719 95.6926C283.429 96.0943 284.259 96.2931 285.201 96.2931C286.052 96.2931 286.82 96.1523 287.509 95.8624C288.198 95.5766 288.796 95.1459 289.303 94.5743L291.955 97.2208C291.15 98.161 290.17 98.8692 289.008 99.3538C287.85 99.8342 286.592 100.074 285.235 100.074L285.239 100.083Z" fill="white"/>
<path d="M302.877 100.083C301.361 100.083 299.996 99.7058 298.775 98.9479C297.559 98.19 296.604 97.1587 295.915 95.8541C295.226 94.5495 294.882 93.0833 294.882 91.4557C294.882 89.828 295.226 88.3287 295.915 87.02C296.604 85.7154 297.559 84.6841 298.775 83.9262C299.992 83.1683 301.361 82.7914 302.877 82.7914C304.072 82.7914 305.139 83.0316 306.081 83.512C307.023 83.9925 307.775 84.6634 308.339 85.5249C308.904 86.3863 309.207 87.3513 309.253 88.4281V94.4087C309.207 95.5104 308.904 96.4836 308.339 97.3327C307.775 98.1817 307.023 98.8527 306.081 99.3455C305.139 99.8384 304.072 100.083 302.877 100.083ZM303.707 95.9204C304.969 95.9204 305.99 95.5021 306.774 94.6655C307.555 93.8288 307.945 92.7479 307.945 91.4184C307.945 90.5487 307.766 89.7742 307.409 89.0991C307.052 88.424 306.558 87.898 305.928 87.517C305.297 87.1401 304.554 86.9496 303.707 86.9496C302.86 86.9496 302.15 87.1401 301.519 87.517C300.888 87.8939 300.394 88.424 300.037 89.0991C299.68 89.7742 299.502 90.5487 299.502 91.4184C299.502 92.2882 299.68 93.0958 300.037 93.775C300.394 94.4501 300.888 94.9802 301.519 95.3571C302.15 95.734 302.881 95.9245 303.707 95.9245V95.9204ZM307.7 99.739V95.2701L308.422 91.2155L307.7 87.2271V83.1351H312.179V99.739H307.7Z" fill="white"/>
<path d="M318.451 80.4513C317.716 80.4513 317.106 80.207 316.625 79.71C316.143 79.2171 315.902 78.6042 315.902 77.8711C315.902 77.138 316.143 76.5541 316.625 76.0488C317.106 75.5435 317.716 75.2909 318.451 75.2909C319.186 75.2909 319.825 75.5435 320.294 76.0488C320.763 76.5541 321 77.1587 321 77.8711C321 78.5835 320.763 79.2171 320.294 79.71C319.825 80.2028 319.211 80.4513 318.451 80.4513ZM316.176 99.739V83.1351H320.726V99.739H316.176Z" fill="white"/>
</svg>
