<?xml version="1.0" encoding="UTF-8"?>
<svg id="Layer_1" data-name="Layer 1" xmlns="http://www.w3.org/2000/svg" version="1.1" viewBox="0 0 779.87 245.49">
  <defs>
    <style>
      .cls-1 {
        fill: #2c9563;
      }

      .cls-1, .cls-2 {
        stroke-width: 0px;
      }

      .cls-2 {
        fill: #172628;
      }
    </style>
  </defs>
  <g>
    <path class="cls-1" d="M345.57,1.44c9.11,32.4,25.09,60.81,48.51,85.46,11.52-16.59,19.95-34.22,26.2-52.96,1.47,43.37-9.93,82.99-34.52,119.32-34.63-45.33-47.77-95.82-40.19-151.82Z"/>
    <path class="cls-2" d="M446.14,74.51c-4.86,10.27-8.6,20.91-11.07,31.99-.43,1.93-.73,3.89-1.19,6.38,23.67-.75,45.31-7.23,65.66-19.03-11.84,24.58-69.57,58.79-93.36,55.5,1.09-21.48,20.91-58.85,39.96-74.84Z"/>
    <path class="cls-2" d="M306.67,59.08c31.26,23.35,49.78,54.29,55.54,93.46-29.65-5.42-54.58-18.59-75.18-39.99,12.13,5.45,24.54,9.86,38.16,11.91-.86-23.61-7.17-45.15-18.52-65.37Z"/>
    <path class="cls-2" d="M478.69,81.33c-.06,7.65-6.02,14.73-13.49,16-5.57.95-10.32-2.67-10.9-8.32-.76-7.37,4.37-15.16,11.41-17.34,7.28-2.26,13.04,2.03,12.98,9.66Z"/>
    <path class="cls-2" d="M283.48,89.03c-.02-5.5,3.59-9.06,9.41-9.3,7.19-.29,14.32,4.94,16.3,11.95,1.73,6.13-1.43,11.2-7.69,12.32-8.35,1.5-17.99-6.51-18.01-14.98Z"/>
    <path class="cls-1" d="M385.03,6.49c7.12-3.45,13.99-.99,17.92,6.41,4.86,9.14,2.52,21.65-5.34,28.58-6.88,6.06-15.41,5.12-20.78-2.3-7.16-9.9-2.77-27.38,8.19-32.69Z"/>
  </g>
  <g>
    <path class="cls-2" d="M26.11,219.76L3.53,183.91h13.03l17.51,28.72h-7.47l17.51-28.72h12.86l-22.82,35.86h-8.05ZM24.61,242.26v-28.55h11.37v28.55h-11.37Z"/>
    <path class="cls-2" d="M70.1,243.09c-4.04,0-7.68-.93-10.91-2.78-3.24-1.85-5.81-4.37-7.72-7.55-1.91-3.18-2.86-6.74-2.86-10.67s.94-7.46,2.82-10.58c1.88-3.13,4.45-5.62,7.72-7.47,3.26-1.85,6.89-2.78,10.87-2.78s7.76.93,11,2.78c3.24,1.85,5.8,4.34,7.68,7.47,1.88,3.13,2.82,6.65,2.82,10.58s-.94,7.48-2.82,10.67c-1.88,3.18-4.44,5.7-7.68,7.55-3.24,1.85-6.88,2.78-10.91,2.78ZM70.01,232.96c2.05,0,3.86-.46,5.44-1.37,1.58-.91,2.79-2.19,3.65-3.82.86-1.63,1.29-3.5,1.29-5.6s-.44-3.96-1.33-5.56c-.89-1.6-2.1-2.86-3.65-3.78-1.55-.91-3.35-1.37-5.4-1.37s-3.76.46-5.31,1.37c-1.55.91-2.77,2.17-3.65,3.78-.89,1.61-1.33,3.46-1.33,5.56s.44,3.97,1.33,5.6c.88,1.63,2.1,2.91,3.65,3.82,1.55.91,3.32,1.37,5.31,1.37Z"/>
    <path class="cls-2" d="M115.58,243.09c-3.54,0-6.68-.75-9.42-2.24-2.74-1.49-4.88-3.57-6.43-6.22-1.55-2.66-2.32-5.73-2.32-9.21v-23.24h10.96v22.99c0,1.66.28,3.08.83,4.27.55,1.19,1.38,2.09,2.49,2.7,1.11.61,2.41.91,3.9.91,2.27,0,4.04-.69,5.31-2.08,1.27-1.38,1.91-3.32,1.91-5.81v-22.99h10.87v23.24c0,3.54-.76,6.64-2.28,9.3-1.52,2.66-3.65,4.72-6.39,6.18-2.74,1.46-5.88,2.2-9.42,2.2Z"/>
    <path class="cls-2" d="M142.3,242.26v-40.09h10.87v40.09h-10.87ZM153.18,220.1l-4.23-2.82c.5-4.92,1.94-8.81,4.32-11.66,2.38-2.85,5.81-4.27,10.29-4.27,1.94,0,3.68.32,5.23.96,1.55.64,2.96,1.67,4.23,3.11l-6.81,7.8c-.61-.66-1.34-1.16-2.2-1.49-.86-.33-1.84-.5-2.95-.5-2.32,0-4.22.73-5.69,2.2-1.47,1.47-2.2,3.69-2.2,6.68Z"/>
    <path class="cls-1" d="M176,242.26v-60.01h10.87v29.8l-1.83,9.63,1.74,9.79v10.79h-10.79ZM198.25,243.09c-2.88,0-5.48-.61-7.8-1.83-2.32-1.22-4.18-2.88-5.56-4.98-1.38-2.1-2.13-4.45-2.24-7.06v-14.28c.11-2.6.87-4.94,2.28-7.01,1.41-2.08,3.28-3.69,5.6-4.86,2.32-1.16,4.9-1.74,7.72-1.74,3.71,0,7.03.91,9.96,2.74,2.93,1.83,5.24,4.32,6.93,7.47,1.69,3.15,2.53,6.72,2.53,10.71s-.84,7.47-2.53,10.62c-1.69,3.15-4,5.64-6.93,7.47-2.93,1.83-6.25,2.74-9.96,2.74ZM196.42,233.04c1.99,0,3.75-.46,5.27-1.37,1.52-.91,2.71-2.19,3.57-3.82.86-1.63,1.29-3.53,1.29-5.69s-.43-3.97-1.29-5.6c-.86-1.63-2.06-2.9-3.61-3.82-1.55-.91-3.32-1.37-5.31-1.37s-3.75.46-5.27,1.37c-1.52.91-2.71,2.19-3.57,3.82-.86,1.63-1.29,3.5-1.29,5.6s.43,4.05,1.29,5.69c.86,1.63,2.06,2.91,3.61,3.82,1.55.91,3.32,1.37,5.31,1.37Z"/>
    <path class="cls-1" d="M243.98,243.09c-4.21,0-7.94-.9-11.2-2.7-3.27-1.8-5.85-4.27-7.76-7.43s-2.86-6.75-2.86-10.79.93-7.54,2.78-10.67c1.85-3.13,4.38-5.62,7.59-7.47,3.21-1.85,6.78-2.78,10.71-2.78s7.29.87,10.25,2.61c2.96,1.74,5.28,4.12,6.97,7.14,1.69,3.02,2.53,6.43,2.53,10.25,0,.72-.04,1.45-.12,2.2s-.24,1.59-.46,2.53l-33.7.08v-8.13l28.64-.08-4.4,3.4c-.11-2.38-.54-4.37-1.29-5.98-.75-1.6-1.83-2.83-3.24-3.69-1.41-.86-3.14-1.29-5.19-1.29-2.16,0-4.04.49-5.64,1.45-1.61.97-2.84,2.32-3.69,4.07-.86,1.74-1.29,3.8-1.29,6.18s.46,4.55,1.37,6.35c.91,1.8,2.23,3.18,3.94,4.15,1.71.97,3.71,1.45,5.98,1.45,2.05,0,3.9-.34,5.56-1.04,1.66-.69,3.1-1.73,4.32-3.11l6.39,6.39c-1.94,2.27-4.3,3.98-7.1,5.15-2.79,1.16-5.82,1.74-9.09,1.74Z"/>
    <path class="cls-1" d="M283.48,243.17c-2.27,0-4.5-.3-6.68-.91-2.19-.61-4.19-1.45-6.02-2.53s-3.4-2.39-4.73-3.94l6.47-6.56c1.38,1.55,2.99,2.71,4.81,3.49,1.83.78,3.85,1.16,6.06,1.16,1.77,0,3.11-.25,4.03-.75.91-.5,1.37-1.25,1.37-2.24,0-1.11-.48-1.96-1.45-2.57-.97-.61-2.23-1.12-3.78-1.54-1.55-.42-3.17-.88-4.86-1.41-1.69-.53-3.31-1.22-4.86-2.08-1.55-.86-2.81-2.05-3.78-3.57-.97-1.52-1.45-3.5-1.45-5.93s.62-4.76,1.87-6.64c1.25-1.88,3.03-3.35,5.35-4.4,2.32-1.05,5.06-1.58,8.22-1.58,3.32,0,6.32.58,9.01,1.74,2.68,1.16,4.91,2.91,6.68,5.23l-6.56,6.56c-1.22-1.49-2.59-2.57-4.11-3.24-1.52-.66-3.17-1-4.94-1-1.61,0-2.84.25-3.69.75-.86.5-1.29,1.19-1.29,2.08,0,1,.48,1.77,1.45,2.32.97.55,2.23,1.04,3.78,1.45,1.55.42,3.17.89,4.86,1.41,1.69.53,3.29,1.26,4.81,2.2,1.52.94,2.77,2.19,3.74,3.74.97,1.55,1.45,3.54,1.45,5.98,0,3.93-1.41,7.04-4.23,9.34-2.82,2.3-6.67,3.44-11.54,3.44Z"/>
    <path class="cls-1" d="M303.07,211.71v-9.54h29.63v9.54h-29.63ZM312.45,242.26v-56.77h10.87v56.77h-10.87Z"/>
    <path class="cls-1" d="M356.77,243.09c-4.1,0-7.77-.91-11.04-2.74-3.27-1.83-5.84-4.32-7.72-7.47-1.88-3.15-2.82-6.69-2.82-10.62s.94-7.55,2.82-10.71c1.88-3.15,4.47-5.66,7.76-7.51,3.29-1.85,6.96-2.78,11-2.78,3.15,0,6.06.58,8.72,1.74,2.66,1.16,4.95,2.82,6.89,4.98l-6.97,7.05c-1.05-1.16-2.31-2.05-3.78-2.66-1.47-.61-3.08-.91-4.86-.91-1.99,0-3.78.46-5.35,1.37-1.58.91-2.82,2.16-3.73,3.73s-1.37,3.44-1.37,5.6.46,3.97,1.37,5.6c.91,1.63,2.16,2.91,3.73,3.82,1.58.91,3.36,1.37,5.35,1.37,1.83,0,3.47-.32,4.94-.96,1.47-.63,2.73-1.56,3.78-2.78l7.05,7.06c-2.05,2.21-4.4,3.9-7.05,5.06-2.66,1.16-5.56,1.74-8.72,1.74Z"/>
    <path class="cls-1" d="M394.54,243.09c-3.65,0-6.94-.91-9.88-2.74-2.93-1.83-5.23-4.32-6.89-7.47s-2.49-6.69-2.49-10.62.83-7.55,2.49-10.71c1.66-3.15,3.96-5.64,6.89-7.47,2.93-1.83,6.23-2.74,9.88-2.74,2.88,0,5.45.58,7.72,1.74,2.27,1.16,4.08,2.78,5.44,4.86,1.36,2.08,2.09,4.41,2.2,7.01v14.44c-.11,2.66-.84,5.01-2.2,7.06-1.36,2.05-3.17,3.67-5.44,4.86-2.27,1.19-4.84,1.78-7.72,1.78ZM396.53,233.04c3.04,0,5.51-1.01,7.39-3.03,1.88-2.02,2.82-4.63,2.82-7.84,0-2.1-.43-3.97-1.29-5.6-.86-1.63-2.05-2.9-3.57-3.82-1.52-.91-3.31-1.37-5.35-1.37s-3.75.46-5.27,1.37c-1.52.91-2.71,2.19-3.57,3.82-.86,1.63-1.29,3.5-1.29,5.6s.43,4.05,1.29,5.69c.86,1.63,2.05,2.91,3.57,3.82,1.52.91,3.28,1.37,5.27,1.37ZM406.16,242.26v-10.79l1.74-9.79-1.74-9.63v-9.88h10.79v40.09h-10.79Z"/>
    <path class="cls-1" d="M426.58,242.26v-40.09h10.87v40.09h-10.87ZM453.55,242.26v-22.99c0-2.38-.75-4.32-2.24-5.81s-3.43-2.24-5.81-2.24c-1.55,0-2.93.33-4.15,1-1.22.66-2.17,1.61-2.86,2.82-.69,1.22-1.04,2.63-1.04,4.23l-4.23-2.16c0-3.15.68-5.91,2.03-8.26,1.36-2.35,3.24-4.19,5.64-5.52,2.41-1.33,5.13-1.99,8.18-1.99s5.56.73,7.88,2.2c2.32,1.47,4.15,3.38,5.48,5.73,1.33,2.35,1.99,4.88,1.99,7.59v25.4h-10.87Z"/>
    <path class="cls-1" d="M490.15,243.09c-3.71,0-7.03-.91-9.96-2.74-2.93-1.83-5.24-4.32-6.93-7.47-1.69-3.15-2.53-6.69-2.53-10.62s.84-7.55,2.53-10.71c1.69-3.15,3.98-5.64,6.89-7.47,2.9-1.83,6.24-2.74,10-2.74,2.88,0,5.46.58,7.76,1.74,2.29,1.16,4.15,2.78,5.56,4.86,1.41,2.08,2.17,4.41,2.28,7.01v14.28c-.11,2.6-.86,4.95-2.24,7.06-1.38,2.1-3.24,3.76-5.56,4.98-2.32,1.22-4.92,1.83-7.8,1.83ZM491.98,233.04c2.05,0,3.83-.46,5.35-1.37,1.52-.91,2.71-2.19,3.57-3.82.86-1.63,1.29-3.53,1.29-5.69s-.43-3.97-1.29-5.6c-.86-1.63-2.05-2.9-3.57-3.82-1.52-.91-3.28-1.37-5.27-1.37s-3.83.47-5.35,1.41c-1.52.94-2.71,2.21-3.57,3.82-.86,1.61-1.29,3.46-1.29,5.56s.43,4.05,1.29,5.69c.86,1.63,2.06,2.91,3.61,3.82,1.55.91,3.29,1.37,5.23,1.37ZM512.4,242.26h-10.79v-10.79l1.74-9.79-1.83-9.63v-29.8h10.87v60.01Z"/>
    <path class="cls-1" d="M527.5,195.69c-1.77,0-3.24-.59-4.4-1.79-1.16-1.19-1.74-2.67-1.74-4.44s.58-3.18,1.74-4.4c1.16-1.22,2.63-1.83,4.4-1.83s3.31.61,4.44,1.83c1.13,1.22,1.7,2.68,1.7,4.4s-.57,3.25-1.7,4.44c-1.13,1.19-2.61,1.79-4.44,1.79ZM522.03,242.26v-40.09h10.96v40.09h-10.96Z"/>
    <path class="cls-1" d="M559.54,243.09c-3.71,0-7.03-.91-9.96-2.74-2.93-1.83-5.24-4.32-6.93-7.47-1.69-3.15-2.53-6.69-2.53-10.62s.84-7.55,2.53-10.71c1.69-3.15,3.98-5.64,6.89-7.47,2.9-1.83,6.24-2.74,10-2.74,2.88,0,5.46.58,7.76,1.74,2.29,1.16,4.15,2.78,5.56,4.86,1.41,2.08,2.17,4.41,2.28,7.01v14.28c-.11,2.6-.86,4.95-2.24,7.06-1.38,2.1-3.24,3.76-5.56,4.98-2.32,1.22-4.92,1.83-7.8,1.83ZM561.37,233.04c2.05,0,3.83-.46,5.35-1.37,1.52-.91,2.71-2.19,3.57-3.82.86-1.63,1.29-3.53,1.29-5.69s-.43-3.97-1.29-5.6c-.86-1.63-2.05-2.9-3.57-3.82-1.52-.91-3.28-1.37-5.27-1.37s-3.83.47-5.35,1.41c-1.52.94-2.71,2.21-3.57,3.82-.86,1.61-1.29,3.46-1.29,5.56s.43,4.05,1.29,5.69c.86,1.63,2.06,2.91,3.61,3.82,1.55.91,3.29,1.37,5.23,1.37ZM581.78,242.26h-10.79v-10.79l1.74-9.79-1.83-9.63v-29.8h10.87v60.01Z"/>
    <path class="cls-1" d="M608.18,243.09c-3.65,0-6.94-.91-9.88-2.74-2.93-1.83-5.23-4.32-6.89-7.47s-2.49-6.69-2.49-10.62.83-7.55,2.49-10.71c1.66-3.15,3.96-5.64,6.89-7.47,2.93-1.83,6.23-2.74,9.88-2.74,2.88,0,5.45.58,7.72,1.74,2.27,1.16,4.08,2.78,5.44,4.86,1.36,2.08,2.09,4.41,2.2,7.01v14.44c-.11,2.66-.84,5.01-2.2,7.06-1.36,2.05-3.17,3.67-5.44,4.86-2.27,1.19-4.84,1.78-7.72,1.78ZM610.17,233.04c3.04,0,5.5-1.01,7.39-3.03,1.88-2.02,2.82-4.63,2.82-7.84,0-2.1-.43-3.97-1.29-5.6-.86-1.63-2.05-2.9-3.57-3.82-1.52-.91-3.31-1.37-5.35-1.37s-3.75.46-5.27,1.37c-1.52.91-2.71,2.19-3.57,3.82-.86,1.63-1.29,3.5-1.29,5.6s.43,4.05,1.29,5.69c.86,1.63,2.05,2.91,3.57,3.82,1.52.91,3.28,1.37,5.27,1.37ZM619.8,242.26v-10.79l1.74-9.79-1.74-9.63v-9.88h10.79v40.09h-10.79Z"/>
    <path class="cls-1" d="M636.73,211.71v-9.54h29.63v9.54h-29.63ZM646.11,242.26v-56.77h10.87v56.77h-10.87Z"/>
    <path class="cls-1" d="M690.68,243.09c-4.21,0-7.94-.9-11.21-2.7-3.27-1.8-5.85-4.27-7.76-7.43s-2.86-6.75-2.86-10.79.93-7.54,2.78-10.67c1.85-3.13,4.38-5.62,7.59-7.47,3.21-1.85,6.78-2.78,10.71-2.78s7.29.87,10.25,2.61c2.96,1.74,5.28,4.12,6.97,7.14,1.69,3.02,2.53,6.43,2.53,10.25,0,.72-.04,1.45-.12,2.2s-.24,1.59-.46,2.53l-33.7.08v-8.13l28.64-.08-4.4,3.4c-.11-2.38-.54-4.37-1.29-5.98-.75-1.6-1.83-2.83-3.24-3.69-1.41-.86-3.14-1.29-5.19-1.29-2.16,0-4.04.49-5.64,1.45-1.61.97-2.84,2.32-3.69,4.07-.86,1.74-1.29,3.8-1.29,6.18s.46,4.55,1.37,6.35c.91,1.8,2.23,3.18,3.94,4.15,1.71.97,3.71,1.45,5.98,1.45,2.05,0,3.9-.34,5.56-1.04,1.66-.69,3.1-1.73,4.32-3.11l6.39,6.39c-1.94,2.27-4.3,3.98-7.1,5.15-2.79,1.16-5.82,1.74-9.09,1.74Z"/>
    <path class="cls-2" d="M733.17,243.09c-3.65,0-6.94-.91-9.88-2.74-2.93-1.83-5.23-4.32-6.89-7.47s-2.49-6.69-2.49-10.62.83-7.55,2.49-10.71c1.66-3.15,3.96-5.64,6.89-7.47,2.93-1.83,6.23-2.74,9.88-2.74,2.88,0,5.45.58,7.72,1.74,2.27,1.16,4.08,2.78,5.44,4.86,1.36,2.08,2.09,4.41,2.2,7.01v14.44c-.11,2.66-.84,5.01-2.2,7.06-1.36,2.05-3.17,3.67-5.44,4.86-2.27,1.19-4.84,1.78-7.72,1.78ZM735.17,233.04c3.04,0,5.5-1.01,7.39-3.03,1.88-2.02,2.82-4.63,2.82-7.84,0-2.1-.43-3.97-1.29-5.6-.86-1.63-2.05-2.9-3.57-3.82-1.52-.91-3.31-1.37-5.35-1.37s-3.75.46-5.27,1.37c-1.52.91-2.71,2.19-3.57,3.82-.86,1.63-1.29,3.5-1.29,5.6s.43,4.05,1.29,5.69c.86,1.63,2.05,2.91,3.57,3.82,1.52.91,3.28,1.37,5.27,1.37ZM744.79,242.26v-10.79l1.74-9.79-1.74-9.63v-9.88h10.79v40.09h-10.79Z"/>
    <path class="cls-2" d="M770.69,195.69c-1.77,0-3.24-.59-4.4-1.79-1.16-1.19-1.74-2.67-1.74-4.44s.58-3.18,1.74-4.4c1.16-1.22,2.63-1.83,4.4-1.83s3.31.61,4.44,1.83c1.13,1.22,1.7,2.68,1.7,4.4s-.57,3.25-1.7,4.44c-1.13,1.19-2.61,1.79-4.44,1.79ZM765.21,242.26v-40.09h10.96v40.09h-10.96Z"/>
  </g>
</svg>